<svg width="29" height="38" viewBox="0 0 29 38" fill="none" xmlns="http://www.w3.org/2000/svg">
<rect x="14.6641" y="27.8857" width="1.16107" height="9.28859" rx="0.580537" fill="#366C99"/>
<circle cx="14.5" cy="14.5" r="14.5" fill="#055DA3"/>
<path d="M7.49908 14.75C7.49908 15.3409 7.61548 15.9261 7.84163 16.4721C8.06777 17.018 8.39924 17.5141 8.8171 17.932C9.23497 18.3498 9.73104 18.6813 10.277 18.9075C10.823 19.1336 11.4081 19.25 11.9991 19.25C12.59 19.25 13.1752 19.1336 13.7212 18.9075C14.2671 18.6813 14.7632 18.3498 15.1811 17.932C15.5989 17.5141 15.9304 17.018 16.1565 16.4721C16.3827 15.9261 16.4991 15.3409 16.4991 14.75C16.4991 13.9544 16.183 13.1913 15.6204 12.6287C15.0578 12.0661 14.2947 11.75 13.4991 11.75C12.7034 11.75 11.9404 12.0661 11.3778 12.6287C10.8152 13.1913 10.4991 13.9544 10.4991 14.75C10.4991 15.1478 10.6571 15.5294 10.9384 15.8107C11.2197 16.092 11.6013 16.25 11.9991 16.25C12.3969 16.25 12.7784 16.092 13.0597 15.8107C13.341 15.5294 13.4991 15.1478 13.4991 14.75" stroke="#F6F2EF" stroke-width="1.08333" stroke-linecap="round" stroke-linejoin="round"/>
<path d="M13.4991 20.75C16.8128 20.75 19.4991 18.0637 19.4991 14.75C19.4991 11.4363 16.8128 8.75 13.4991 8.75C10.1854 8.75 7.49908 11.4363 7.49908 14.75C7.49908 18.0637 10.1854 20.75 13.4991 20.75Z" stroke="#F6F2EF" stroke-width="1.08333" stroke-linecap="round" stroke-linejoin="round"/>
<path d="M7.49908 20.75H16.4991C19.7991 20.75 22.4991 18.05 22.4991 14.75V10.25C22.4991 9.85218 22.341 9.47064 22.0597 9.18934C21.7784 8.90804 21.3969 8.75 20.9991 8.75C20.6013 8.75 20.2197 8.90804 19.9384 9.18934C19.6571 9.47064 19.4991 9.85218 19.4991 10.25V14.75M19.4991 7.25L20.3241 8.9M22.4991 7.25L21.6741 8.9" stroke="#F6F2EF" stroke-width="1.08333" stroke-linecap="round" stroke-linejoin="round"/>
</svg>
