<svg width="29" height="38" viewBox="0 0 29 38" fill="none" xmlns="http://www.w3.org/2000/svg">
<rect x="14.5918" y="27.8857" width="1.16107" height="9.28859" rx="0.580537" fill="#016EC6"/>
<circle cx="14.5" cy="14.5" r="14.5" fill="#016EC6"/>
<path d="M24 11.1194C24 10.9165 23.9186 10.7219 23.7736 10.5784C23.6287 10.435 23.4321 10.3544 23.2272 10.3544C23.0974 10.3569 22.9705 10.3921 22.8583 10.4566L21.3071 8.78788C21.3667 8.67909 21.3984 8.55745 21.3993 8.43368C21.4001 8.29274 21.3613 8.15436 21.2874 8.03394C21.2134 7.91351 21.1071 7.81578 20.9803 7.75162C20.8536 7.68745 20.7113 7.65938 20.5694 7.67053C20.4274 7.68167 20.2914 7.7316 20.1764 7.81474L17.8026 6.78319C17.8014 6.60167 17.7349 6.42651 17.615 6.28917C17.4951 6.15182 17.3297 6.06127 17.1484 6.03379C16.9671 6.0063 16.7819 6.04367 16.626 6.13919C16.47 6.23471 16.3536 6.38212 16.2975 6.55497H12.675C12.6238 6.3761 12.5083 6.2219 12.3504 6.12132C12.1924 6.02074 12.0028 5.9807 11.8171 6.00872C11.6314 6.03674 11.4625 6.13088 11.342 6.27348C11.2214 6.41609 11.1576 6.59733 11.1626 6.78319C11.161 6.81116 11.161 6.8392 11.1626 6.86717L9.4417 7.73806C9.37988 7.65518 9.30172 7.58558 9.21194 7.53347C9.12216 7.48136 9.02263 7.44783 8.91938 7.43491C8.81612 7.42199 8.71129 7.42995 8.61124 7.4583C8.51118 7.48665 8.41798 7.53481 8.33727 7.59986C8.25657 7.66491 8.19004 7.74549 8.14171 7.83673C8.09339 7.92797 8.06427 8.02797 8.05613 8.13068C8.04799 8.23338 8.06099 8.33666 8.09434 8.43424C8.12769 8.53183 8.18071 8.6217 8.25018 8.69841L6.92032 10.369C6.72813 10.3337 6.52957 10.372 6.36484 10.4762C6.2001 10.5803 6.08147 10.7425 6.03296 10.93C5.98445 11.1174 6.00968 11.3161 6.10353 11.4858C6.19739 11.6555 6.35287 11.7836 6.53852 11.8442V13.9767C6.41813 14.0142 6.3089 14.0804 6.22047 14.1695C6.13203 14.2586 6.0671 14.3679 6.03141 14.4877C5.99571 14.6075 5.99035 14.7342 6.01579 14.8565C6.04123 14.9789 6.0967 15.0931 6.17729 15.1892C6.25789 15.2854 6.36114 15.3604 6.47794 15.4077C6.59474 15.455 6.7215 15.4731 6.84704 15.4604C6.97259 15.4478 7.09306 15.4048 7.19783 15.3351C7.30261 15.2655 7.38847 15.1714 7.44784 15.0612L9.23512 15.3332C9.25744 15.5134 9.34405 15.6797 9.47932 15.8022C9.6146 15.9248 9.78964 15.9954 9.9729 16.0015L10.7734 17.5351C10.6562 17.5838 10.553 17.6604 10.4728 17.758C10.3927 17.8556 10.3381 17.9713 10.3139 18.0947C10.2897 18.2182 10.2966 18.3457 10.3341 18.4659C10.3715 18.5861 10.4383 18.6953 10.5286 18.7839C10.6189 18.8724 10.7298 18.9375 10.8516 18.9735C10.9733 19.0095 11.1022 19.0152 11.2267 18.9901C11.3512 18.965 11.4676 18.9099 11.5655 18.8297C11.6633 18.7495 11.7397 18.6466 11.7878 18.5302L14.5029 19.3554C14.5129 19.508 14.5692 19.654 14.6642 19.7745C14.7593 19.895 14.8888 19.9843 15.0359 20.0309L14.9954 22.5048C14.819 22.5594 14.6683 22.6747 14.5704 22.8298C14.4725 22.9849 14.4341 23.1696 14.4619 23.3504C14.4898 23.5312 14.5822 23.6962 14.7224 23.8153C14.8625 23.9345 15.0412 24 15.2259 24C15.4107 24 15.5893 23.9345 15.7295 23.8153C15.8696 23.6962 15.962 23.5312 15.9899 23.3504C16.0178 23.1696 15.9793 22.9849 15.8814 22.8298C15.7836 22.6747 15.6328 22.5594 15.4565 22.5048L15.5007 20.0309C15.6404 19.9888 15.7651 19.9082 15.8602 19.7985C15.9552 19.6888 16.0168 19.5546 16.0377 19.4116C16.0586 19.2686 16.0379 19.1226 15.9781 18.9908C15.9183 18.8589 15.8218 18.7467 15.6999 18.6671L16.0817 17.5388L18.8816 18.4863C18.8813 18.6495 18.9338 18.8084 19.0314 18.9398C19.129 19.0712 19.2665 19.1683 19.4239 19.2166V22.503C19.2476 22.5576 19.0968 22.6729 18.9989 22.828C18.9011 22.9831 18.8626 23.1678 18.8905 23.3486C18.9184 23.5294 19.0107 23.6943 19.1509 23.8135C19.2911 23.9327 19.4697 23.9982 19.6545 23.9982C19.8392 23.9982 20.0179 23.9327 20.158 23.8135C20.2982 23.6943 20.3906 23.5294 20.4184 23.3486C20.4463 23.1678 20.4078 22.9831 20.31 22.828C20.2121 22.6729 20.0614 22.5576 19.885 22.503V19.2166C19.9906 19.1851 20.0879 19.1312 20.1704 19.0588C20.2529 18.9863 20.3185 18.897 20.3627 18.797C20.4069 18.697 20.4286 18.5887 20.4264 18.4796C20.4242 18.3705 20.398 18.2632 20.3498 18.165L22.8214 16.1366C22.9429 16.2124 23.0835 16.2529 23.2272 16.2534C23.4106 16.2522 23.5875 16.1864 23.7263 16.0677C23.865 15.949 23.9565 15.7853 23.9842 15.6058C24.012 15.4264 23.9743 15.243 23.8778 15.0887C23.7813 14.9343 23.6323 14.8191 23.4577 14.7636V11.8424C23.6139 11.7944 23.7506 11.6984 23.8481 11.5685C23.9455 11.4385 23.9988 11.2812 24 11.1194ZM22.8251 14.8403L20.5693 12.9616L22.7827 11.7474C22.8463 11.7897 22.9159 11.8223 22.9892 11.8442V14.7654C22.9311 14.7837 22.8754 14.8089 22.8232 14.8403H22.8251ZM14.6172 18.9136L11.8266 18.0646C11.7939 17.9307 11.7252 17.8081 11.6277 17.7097C11.5303 17.6114 11.4078 17.5409 11.2732 17.5059L10.4248 15.8718C10.4962 15.8217 10.5586 15.76 10.6092 15.6893L14.1635 16.8906L14.7168 18.773C14.6784 18.816 14.645 18.8632 14.6172 18.9136ZM9.31812 14.8841L7.529 14.6121C7.51131 14.4666 7.45162 14.3293 7.35707 14.2166C7.26252 14.1039 7.13713 14.0206 6.99595 13.9767V11.8442C7.11418 11.8073 7.22168 11.7428 7.30933 11.656C7.39699 11.5692 7.46222 11.4628 7.49948 11.3458H9.31812L9.73681 14.519C9.55608 14.5847 9.40673 14.7149 9.31812 14.8841ZM8.86438 8.98506C8.91208 8.98456 8.95962 8.97967 9.00641 8.97045L9.2591 10.8912H7.49948C7.4651 10.7808 7.40581 10.6797 7.3261 10.5954L8.65227 8.9522C8.72105 8.97301 8.79247 8.98407 8.86438 8.98506ZM10.1998 14.5043L9.78292 11.3458H11.9575C12.0052 11.4975 12.0997 11.6307 12.2277 11.7267C12.3557 11.8226 12.5108 11.8765 12.6713 11.8807L13.0974 13.3176L10.5152 14.6814C10.4258 14.5984 10.3177 14.5377 10.1998 14.5043ZM17.0482 11.218L14.7002 12.4704L13.4534 11.2234C13.4722 11.1176 13.4662 11.0088 13.4359 10.9056C13.4055 10.8024 13.3515 10.7075 13.2782 10.6282L14.7722 9.23884L17.0648 10.9021C17.0285 11.0059 17.0202 11.1173 17.0409 11.2253L17.0482 11.218ZM13.2376 11.658L14.276 12.695L13.5143 13.093L13.1159 11.7511C13.1594 11.7241 13.2002 11.6929 13.2376 11.658ZM13.0015 11.1102C13.0015 11.1713 12.9832 11.2309 12.949 11.2817C12.9147 11.3324 12.866 11.372 12.8091 11.3953C12.7521 11.4187 12.6894 11.4248 12.629 11.4129C12.5685 11.401 12.513 11.3716 12.4694 11.3284C12.4258 11.2853 12.3961 11.2303 12.3841 11.1704C12.372 11.1106 12.3782 11.0486 12.4018 10.9922C12.4254 10.9358 12.4653 10.8876 12.5166 10.8537C12.5679 10.8198 12.6281 10.8017 12.6898 10.8017C12.732 10.8009 12.7739 10.8087 12.813 10.8244C12.852 10.8401 12.8875 10.8636 12.9171 10.8933C12.9468 10.923 12.9701 10.9583 12.9855 10.9972C13.001 11.0361 13.0083 11.0776 13.007 11.1194L13.0015 11.1102ZM10.7623 15.2657C10.7623 15.2566 10.7623 15.2474 10.7623 15.2383C10.7624 15.1849 10.7569 15.1317 10.7457 15.0795L13.2284 13.7649L14.003 16.3611L10.7623 15.2657ZM13.6452 13.5458L14.6136 13.0328L16.0061 14.4258C15.938 14.5946 15.9339 14.782 15.9946 14.9535C16.0553 15.125 16.1767 15.269 16.3363 15.3588L15.7829 16.9673L14.5287 16.5419L13.6452 13.5458ZM16.7236 15.0064C16.662 15.0064 16.6017 14.9883 16.5504 14.9544C16.4992 14.9205 16.4592 14.8723 16.4356 14.816C16.412 14.7596 16.4059 14.6975 16.4179 14.6377C16.4299 14.5778 16.4596 14.5228 16.5032 14.4797C16.5468 14.4365 16.6023 14.4072 16.6628 14.3953C16.7233 14.3833 16.7859 14.3895 16.8429 14.4128C16.8999 14.4362 16.9485 14.4757 16.9828 14.5265C17.017 14.5772 17.0353 14.6369 17.0353 14.6979C17.0358 14.7385 17.0282 14.7789 17.0128 14.8167C16.9975 14.8544 16.9748 14.8888 16.946 14.9178C16.9172 14.9468 16.8829 14.9699 16.845 14.9857C16.8072 15.0016 16.7666 15.0098 16.7255 15.0101L16.7236 15.0064ZM16.7236 13.9347C16.5705 13.9345 16.4208 13.9797 16.2939 14.0643L15.0359 12.8082L17.2493 11.6324C17.3849 11.7786 17.5733 11.8659 17.7736 11.8755C17.9738 11.8851 18.1698 11.8161 18.3191 11.6835L19.7541 12.8758L17.3138 14.2104C17.2418 14.1252 17.1518 14.0567 17.0502 14.0097C16.9485 13.9627 16.8377 13.9384 16.7255 13.9384L16.7236 13.9347ZM20.3627 9.14938C20.4617 9.18658 20.5677 9.20224 20.6733 9.19531C20.779 9.18838 20.8819 9.15902 20.9751 9.10921L22.5337 10.7889C22.487 10.8803 22.4603 10.9803 22.4552 11.0825C22.4501 11.1847 22.4668 11.2869 22.5041 11.3823L20.182 12.6475L18.5589 11.2965C18.6015 11.1324 18.5852 10.9588 18.5127 10.8053L20.3627 9.14938ZM18.1199 11.1194C18.1199 11.1802 18.1017 11.2396 18.0677 11.2902C18.0337 11.3408 17.9853 11.3804 17.9287 11.4039C17.8721 11.4274 17.8097 11.4338 17.7493 11.4223C17.689 11.4109 17.6335 11.382 17.5897 11.3394C17.5459 11.2968 17.5158 11.2423 17.5031 11.1829C17.4905 11.1234 17.4959 11.0615 17.5186 11.005C17.5414 10.9486 17.5804 10.9 17.631 10.8655C17.6815 10.8309 17.7412 10.8119 17.8026 10.8108C17.844 10.8101 17.8852 10.8175 17.9236 10.8327C17.9621 10.8479 17.9971 10.8705 18.0266 10.8992C18.0562 10.928 18.0796 10.9622 18.0956 11C18.1116 11.0378 18.1199 11.0784 18.1199 11.1194ZM17.4909 14.6358L20.1285 13.1989L22.3123 15.0119L17.4632 14.9188C17.4852 14.8496 17.497 14.7777 17.4983 14.7052C17.4983 14.6796 17.4928 14.6577 17.4909 14.6358ZM23.2272 10.8108C23.2888 10.8108 23.3491 10.8289 23.4004 10.8628C23.4516 10.8967 23.4916 10.9449 23.5152 11.0013C23.5388 11.0577 23.5449 11.1197 23.5329 11.1796C23.5209 11.2394 23.4912 11.2944 23.4476 11.3376C23.404 11.3807 23.3485 11.4101 23.288 11.422C23.2275 11.4339 23.1648 11.4278 23.1079 11.4044C23.0509 11.3811 23.0022 11.3415 22.968 11.2908C22.9337 11.2401 22.9155 11.1804 22.9155 11.1194C22.9155 11.0375 22.9483 10.9591 23.0068 10.9012C23.0652 10.8433 23.1445 10.8108 23.2272 10.8108ZM20.6228 8.1233C20.6845 8.1233 20.7447 8.1414 20.796 8.1753C20.8472 8.2092 20.8872 8.25739 20.9108 8.31377C20.9344 8.37016 20.9405 8.4322 20.9285 8.49205C20.9165 8.5519 20.8868 8.60688 20.8432 8.65003C20.7996 8.69319 20.7441 8.72257 20.6836 8.73448C20.6231 8.74638 20.5605 8.74027 20.5035 8.71692C20.4466 8.69357 20.3979 8.65402 20.3636 8.60328C20.3294 8.55254 20.3111 8.49288 20.3111 8.43185C20.3111 8.35002 20.3439 8.27154 20.4024 8.21367C20.4608 8.15581 20.5401 8.1233 20.6228 8.1233ZM19.885 8.19085C19.8439 8.30293 19.8312 8.42326 19.8479 8.54133C19.8646 8.65941 19.9103 8.77163 19.9809 8.86821L18.1955 10.4658C18.0616 10.3844 17.9053 10.3465 17.7486 10.3573C17.5919 10.3681 17.4425 10.4271 17.3212 10.526L15.1079 8.92116L16.6757 7.46055C16.7824 7.51499 16.9005 7.54376 17.0206 7.54453C17.1448 7.54455 17.2672 7.51484 17.3774 7.45794C17.4875 7.40104 17.5822 7.31862 17.6532 7.21772L19.885 8.19085ZM16.3492 7.14469L14.7353 8.64547L12.6381 7.12278C12.6558 7.08687 12.6707 7.04963 12.6824 7.01141H16.292C16.3067 7.05755 16.3259 7.10218 16.3492 7.14469ZM17.0243 6.47463C17.0859 6.47463 17.1462 6.49273 17.1974 6.52663C17.2487 6.56054 17.2887 6.60873 17.3122 6.66511C17.3358 6.72149 17.342 6.78353 17.33 6.84338C17.318 6.90324 17.2883 6.95822 17.2447 7.00137C17.2011 7.04452 17.1455 7.07391 17.0851 7.08581C17.0246 7.09772 16.9619 7.09161 16.905 7.06825C16.848 7.0449 16.7993 7.00535 16.7651 6.95461C16.7308 6.90387 16.7125 6.84421 16.7125 6.78319C16.7125 6.74251 16.7207 6.70224 16.7365 6.66469C16.7522 6.62713 16.7754 6.59303 16.8045 6.56436C16.8336 6.53568 16.8682 6.51299 16.9063 6.49759C16.9443 6.4822 16.985 6.47439 17.0261 6.47463H17.0243ZM11.9409 6.47463C12.0026 6.47463 12.0629 6.49273 12.1141 6.52663C12.1654 6.56054 12.2053 6.60873 12.2289 6.66511C12.2525 6.72149 12.2587 6.78353 12.2467 6.84338C12.2346 6.90324 12.2049 6.95822 12.1614 7.00137C12.1178 7.04452 12.0622 7.07391 12.0017 7.08581C11.9413 7.09772 11.8786 7.09161 11.8216 7.06825C11.7647 7.0449 11.716 7.00535 11.6818 6.95461C11.6475 6.90387 11.6292 6.84421 11.6292 6.78319C11.6292 6.70135 11.6621 6.62287 11.7205 6.56501C11.779 6.50714 11.8583 6.47463 11.9409 6.47463ZM11.3636 7.28527C11.4768 7.41694 11.6326 7.50565 11.8045 7.53629C11.9764 7.56692 12.1537 7.53757 12.3061 7.45324L14.3941 8.96498L12.8742 10.3781C12.6833 10.3278 12.48 10.3532 12.3078 10.4491C12.1355 10.5449 12.0079 10.7035 11.952 10.8912H9.7239L9.43801 8.72763C9.56565 8.58872 9.63664 8.40784 9.63721 8.22006C9.63721 8.19998 9.63721 8.18172 9.63721 8.16347L11.3636 7.28527ZM8.86438 7.91334C8.92603 7.91334 8.9863 7.93143 9.03756 7.96534C9.08882 7.99924 9.12877 8.04743 9.15237 8.10381C9.17596 8.16019 9.18213 8.22223 9.17011 8.28209C9.15808 8.34194 9.12839 8.39692 9.0848 8.44007C9.0412 8.48322 8.98566 8.51261 8.92519 8.52452C8.86473 8.53642 8.80205 8.53031 8.74509 8.50696C8.68814 8.4836 8.63945 8.44406 8.6052 8.39331C8.57095 8.34257 8.55267 8.28292 8.55267 8.22189C8.55267 8.14006 8.58551 8.06157 8.64397 8.00371C8.70243 7.94584 8.78171 7.91334 8.86438 7.91334ZM6.76539 10.8108C6.82704 10.8108 6.88731 10.8289 6.93857 10.8628C6.98983 10.8967 7.02978 10.9449 7.05338 11.0013C7.07697 11.0577 7.08314 11.1197 7.07111 11.1796C7.05909 11.2394 7.0294 11.2944 6.9858 11.3376C6.94221 11.3807 6.88667 11.4101 6.8262 11.422C6.76574 11.4339 6.70306 11.4278 6.6461 11.4044C6.58914 11.3811 6.54046 11.3415 6.50621 11.2908C6.47196 11.2401 6.45368 11.1804 6.45368 11.1194C6.45368 11.0375 6.48652 10.9591 6.54497 10.9012C6.60343 10.8433 6.68272 10.8108 6.76539 10.8108ZM6.76539 15.0101C6.70374 15.0101 6.64347 14.992 6.59221 14.9581C6.54095 14.9242 6.501 14.876 6.4774 14.8196C6.45381 14.7632 6.44764 14.7012 6.45967 14.6413C6.47169 14.5815 6.50138 14.5265 6.54497 14.4833C6.58857 14.4402 6.64411 14.4108 6.70458 14.3989C6.76504 14.387 6.82772 14.3931 6.88468 14.4165C6.94164 14.4398 6.99032 14.4794 7.02457 14.5301C7.05882 14.5808 7.0771 14.6405 7.0771 14.7015C7.0771 14.7834 7.04426 14.8618 6.9858 14.9197C6.92735 14.9776 6.84806 15.0101 6.76539 15.0101ZM9.68701 15.2383C9.68701 15.1773 9.70529 15.1176 9.73954 15.0669C9.77379 15.0161 9.82248 14.9766 9.87944 14.9532C9.93639 14.9299 9.99907 14.9238 10.0595 14.9357C10.12 14.9476 10.1755 14.977 10.2191 15.0201C10.2627 15.0633 10.2924 15.1183 10.3044 15.1781C10.3165 15.238 10.3103 15.3 10.2867 15.3564C10.2631 15.4128 10.2232 15.461 10.1719 15.4949C10.1206 15.5288 10.0604 15.5469 9.99872 15.5469C9.91605 15.5469 9.83677 15.5143 9.77831 15.4565C9.71985 15.3986 9.68701 15.3201 9.68701 15.2383ZM11.0814 18.5484C11.0198 18.5484 10.9595 18.5303 10.9082 18.4964C10.857 18.4625 10.817 18.4143 10.7934 18.3579C10.7698 18.3016 10.7637 18.2395 10.7757 18.1797C10.7877 18.1198 10.8174 18.0648 10.861 18.0217C10.9046 17.9785 10.9601 17.9491 11.0206 17.9372C11.0811 17.9253 11.1437 17.9314 11.2007 17.9548C11.2577 17.9781 11.3063 18.0177 11.3406 18.0684C11.3749 18.1192 11.3931 18.1788 11.3931 18.2399C11.3931 18.2807 11.385 18.3211 11.3691 18.3588C11.3532 18.3965 11.3299 18.4306 11.3005 18.4593C11.2712 18.488 11.2364 18.5107 11.1982 18.526C11.1599 18.5413 11.119 18.5489 11.0777 18.5484H11.0814ZM15.2204 23.5455C15.1587 23.5455 15.0985 23.5274 15.0472 23.4935C14.9959 23.4596 14.956 23.4114 14.9324 23.3551C14.9088 23.2987 14.9026 23.2366 14.9147 23.1768C14.9267 23.1169 14.9564 23.0619 15 23.0188C15.0436 22.9756 15.0991 22.9463 15.1596 22.9344C15.22 22.9224 15.2827 22.9286 15.3397 22.9519C15.3966 22.9753 15.4453 23.0148 15.4796 23.0656C15.5138 23.1163 15.5321 23.1759 15.5321 23.237C15.5321 23.3188 15.4993 23.3973 15.4408 23.4552C15.3823 23.513 15.3031 23.5455 15.2204 23.5455ZM15.2665 19.6201C15.2054 19.618 15.1462 19.5981 15.0964 19.5629C15.0466 19.5277 15.0084 19.4788 14.9865 19.4223C14.9646 19.3657 14.96 19.3041 14.9732 19.245C14.9865 19.1858 15.017 19.1319 15.061 19.0898C15.105 19.0478 15.1606 19.0194 15.2207 19.0084C15.2808 18.9974 15.3429 19.0041 15.3993 19.0277C15.4556 19.0514 15.5036 19.0909 15.5374 19.1414C15.5712 19.1918 15.5892 19.251 15.5893 19.3116C15.5893 19.3524 15.5811 19.3928 15.5652 19.4305C15.5493 19.4682 15.526 19.5024 15.4967 19.5311C15.4673 19.5598 15.4325 19.5824 15.3943 19.5977C15.356 19.613 15.3151 19.6206 15.2739 19.6201H15.2665ZM15.248 18.5484C15.2078 18.5496 15.1677 18.5538 15.1282 18.5612L14.6873 17.0787L15.6372 17.4L15.248 18.5484ZM16.7882 15.4665C16.8984 15.4578 17.0054 15.4254 17.1017 15.3716L22.4507 15.4775C22.4507 15.4775 22.4507 15.4903 22.4507 15.4957C22.4509 15.6001 22.4729 15.7032 22.5152 15.7988L20.0363 17.8309C19.9205 17.7636 19.7888 17.7277 19.6545 17.7268C19.5291 17.7268 19.4056 17.7571 19.2947 17.815C19.1838 17.8729 19.0889 17.9567 19.0181 18.0591L16.2275 17.1097L16.7882 15.4665ZM19.6471 23.5455C19.5854 23.5455 19.5252 23.5274 19.4739 23.4935C19.4226 23.4596 19.3827 23.4114 19.3591 23.3551C19.3355 23.2987 19.3293 23.2366 19.3414 23.1768C19.3534 23.1169 19.3831 23.0619 19.4267 23.0188C19.4703 22.9756 19.5258 22.9463 19.5863 22.9344C19.6467 22.9224 19.7094 22.9286 19.7664 22.9519C19.8233 22.9753 19.872 23.0148 19.9063 23.0656C19.9405 23.1163 19.9588 23.1759 19.9588 23.237C19.9588 23.3188 19.926 23.3973 19.8675 23.4552C19.809 23.513 19.7298 23.5455 19.6471 23.5455ZM19.6471 18.7985C19.5854 18.7985 19.5252 18.7804 19.4739 18.7465C19.4226 18.7126 19.3827 18.6644 19.3591 18.6081C19.3355 18.5517 19.3293 18.4896 19.3414 18.4298C19.3534 18.3699 19.3831 18.315 19.4267 18.2718C19.4703 18.2287 19.5258 18.1993 19.5863 18.1874C19.6467 18.1755 19.7094 18.1816 19.7664 18.2049C19.8233 18.2283 19.872 18.2678 19.9063 18.3186C19.9405 18.3693 19.9588 18.429 19.9588 18.49C19.9588 18.5718 19.926 18.6503 19.8675 18.7082C19.809 18.766 19.7298 18.7985 19.6471 18.7985ZM23.2216 15.797C23.16 15.797 23.0997 15.7789 23.0485 15.745C22.9972 15.7111 22.9572 15.6629 22.9337 15.6065C22.9101 15.5501 22.9039 15.4881 22.9159 15.4282C22.9279 15.3684 22.9576 15.3134 23.0012 15.2703C23.0448 15.2271 23.1004 15.1977 23.1608 15.1858C23.2213 15.1739 23.284 15.18 23.3409 15.2034C23.3979 15.2267 23.4466 15.2663 23.4808 15.317C23.5151 15.3678 23.5334 15.4274 23.5334 15.4884C23.5334 15.5693 23.5013 15.647 23.444 15.7047C23.3868 15.7624 23.3089 15.7956 23.2272 15.797H23.2216Z" fill="#F6F2EF"/>
</svg>
