<svg width="1201" height="758" viewBox="0 0 1201 758" fill="none" xmlns="http://www.w3.org/2000/svg">
<g opacity="0.6">
<mask id="mask0_60_235" style="mask-type:alpha" maskUnits="userSpaceOnUse" x="0" y="0" width="1201" height="758">
<path d="M1201 0H0V758H1201V0Z" fill="url(#paint0_radial_60_235)"/>
</mask>
<g mask="url(#mask0_60_235)">
<path d="M7.47833 -47.6416H-111.076V70.9129H7.47833V-47.6416Z" stroke="black" stroke-opacity="0.13" stroke-width="1.2334"/>
<path d="M126.037 -47.6416H7.48242V70.9129H126.037V-47.6416Z" stroke="black" stroke-opacity="0.13" stroke-width="1.2334"/>
<path d="M244.594 -47.6416H126.039V70.9129H244.594V-47.6416Z" stroke="black" stroke-opacity="0.13" stroke-width="1.2334"/>
<path d="M363.15 -47.6416H244.596V70.9129H363.15V-47.6416Z" stroke="black" stroke-opacity="0.13" stroke-width="1.2334"/>
<path d="M481.711 -47.6416H363.156V70.9129H481.711V-47.6416Z" stroke="black" stroke-opacity="0.13" stroke-width="1.2334"/>
<path d="M600.269 -47.6416H481.715V70.9129H600.269V-47.6416Z" stroke="black" stroke-opacity="0.13" stroke-width="1.2334"/>
<path d="M718.826 -47.6416H600.271V70.9129H718.826V-47.6416Z" stroke="black" stroke-opacity="0.13" stroke-width="1.2334"/>
<path d="M837.387 -47.6416H718.832V70.9129H837.387V-47.6416Z" stroke="black" stroke-opacity="0.13" stroke-width="1.2334"/>
<path d="M955.945 -47.6416H837.391V70.9129H955.945V-47.6416Z" stroke="black" stroke-opacity="0.13" stroke-width="1.2334"/>
<path d="M1074.5 -47.6416H955.945V70.9129H1074.5V-47.6416Z" stroke="black" stroke-opacity="0.13" stroke-width="1.2334"/>
<path d="M1193.06 -47.6416H1074.5V70.9129H1193.06V-47.6416Z" stroke="black" stroke-opacity="0.13" stroke-width="1.2334"/>
<path d="M1311.62 -47.6416H1193.06V70.9129H1311.62V-47.6416Z" stroke="black" stroke-opacity="0.13" stroke-width="1.2334"/>
<path d="M7.47833 70.8839H-111.076V189.438H7.47833V70.8839Z" stroke="black" stroke-opacity="0.13" stroke-width="1.2334"/>
<path d="M67.6835 12.5449H-65.459V145.687H67.6835V12.5449Z" stroke="black" stroke-opacity="0.13" stroke-width="1.38517"/>
<path d="M200.828 12.5449H67.6855V145.687H200.828V12.5449Z" stroke="black" stroke-opacity="0.13" stroke-width="1.38517"/>
<path d="M333.973 12.5449H200.83V145.687H333.973V12.5449Z" stroke="black" stroke-opacity="0.13" stroke-width="1.38517"/>
<path d="M467.123 12.5449H333.98V145.687H467.123V12.5449Z" stroke="black" stroke-opacity="0.13" stroke-width="1.38517"/>
<path d="M600.269 12.5449H467.127V145.687H600.269V12.5449Z" stroke="black" stroke-opacity="0.13" stroke-width="1.38517"/>
<path d="M733.414 12.5449H600.271V145.687H733.414V12.5449Z" stroke="black" stroke-opacity="0.13" stroke-width="1.38517"/>
<path d="M866.562 12.5449H733.42V145.687H866.562V12.5449Z" stroke="black" stroke-opacity="0.13" stroke-width="1.38517"/>
<path d="M999.711 12.5449H866.568V145.687H999.711V12.5449Z" stroke="black" stroke-opacity="0.13" stroke-width="1.38517"/>
<path d="M1132.85 12.5449H999.711V145.687H1132.85V12.5449Z" stroke="black" stroke-opacity="0.13" stroke-width="1.38517"/>
<path d="M1266 12.5449H1132.86V145.687H1266V12.5449Z" stroke="black" stroke-opacity="0.13" stroke-width="1.38517"/>
<path d="M1311.62 70.8839H1193.06V189.438H1311.62V70.8839Z" stroke="black" stroke-opacity="0.13" stroke-width="1.2334"/>
<path d="M7.47833 189.406H-111.076V307.961H7.47833V189.406Z" stroke="black" stroke-opacity="0.13" stroke-width="1.2334"/>
<path d="M67.6835 145.651H-65.459V278.794H67.6835V145.651Z" stroke="black" stroke-opacity="0.13" stroke-width="1.38517"/>
<path d="M200.828 145.651H67.6855V278.794H200.828V145.651Z" stroke="black" stroke-opacity="0.13" stroke-width="1.38517"/>
<path d="M333.973 145.651H200.83V278.794H333.973V145.651Z" stroke="black" stroke-opacity="0.13" stroke-width="1.38517"/>
<path d="M467.123 145.651H333.98V278.794H467.123V145.651Z" stroke="black" stroke-opacity="0.13" stroke-width="1.38517"/>
<path d="M600.269 145.651H467.127V278.794H600.269V145.651Z" stroke="black" stroke-opacity="0.13" stroke-width="1.38517"/>
<path d="M733.414 145.651H600.271V278.794H733.414V145.651Z" stroke="black" stroke-opacity="0.13" stroke-width="1.38517"/>
<path d="M866.562 145.651H733.42V278.794H866.562V145.651Z" stroke="black" stroke-opacity="0.13" stroke-width="1.38517"/>
<path d="M999.711 145.651H866.568V278.794H999.711V145.651Z" stroke="black" stroke-opacity="0.13" stroke-width="1.38517"/>
<path d="M1132.85 145.651H999.711V278.794H1132.85V145.651Z" stroke="black" stroke-opacity="0.13" stroke-width="1.38517"/>
<path d="M1266 145.651H1132.86V278.794H1266V145.651Z" stroke="black" stroke-opacity="0.13" stroke-width="1.38517"/>
<path d="M1311.62 189.406H1193.06V307.961H1311.62V189.406Z" stroke="black" stroke-opacity="0.13" stroke-width="1.2334"/>
<path d="M7.47833 307.93H-111.076V426.484H7.47833V307.93Z" stroke="black" stroke-opacity="0.13" stroke-width="1.2334"/>
<path d="M67.6835 278.76H-65.459V411.902H67.6835V278.76Z" stroke="black" stroke-opacity="0.13" stroke-width="1.38517"/>
<path d="M200.828 278.76H67.6855V411.902H200.828V278.76Z" stroke="black" stroke-opacity="0.13" stroke-width="1.38517"/>
<path d="M333.973 278.76H200.83V411.902H333.973V278.76Z" stroke="black" stroke-opacity="0.13" stroke-width="1.38517"/>
<path d="M467.123 278.76H333.98V411.902H467.123V278.76Z" stroke="black" stroke-opacity="0.13" stroke-width="1.38517"/>
<path d="M600.269 278.76H467.127V411.902H600.269V278.76Z" stroke="black" stroke-opacity="0.13" stroke-width="1.38517"/>
<path d="M733.414 278.76H600.271V411.902H733.414V278.76Z" stroke="black" stroke-opacity="0.13" stroke-width="1.38517"/>
<path d="M866.562 278.76H733.42V411.902H866.562V278.76Z" stroke="black" stroke-opacity="0.13" stroke-width="1.38517"/>
<path d="M999.711 278.76H866.568V411.902H999.711V278.76Z" stroke="black" stroke-opacity="0.13" stroke-width="1.38517"/>
<path d="M1132.85 278.76H999.711V411.902H1132.85V278.76Z" stroke="black" stroke-opacity="0.13" stroke-width="1.38517"/>
<path d="M1266 278.76H1132.86V411.902H1266V278.76Z" stroke="black" stroke-opacity="0.13" stroke-width="1.38517"/>
<path d="M1311.62 307.93H1193.06V426.484H1311.62V307.93Z" stroke="black" stroke-opacity="0.13" stroke-width="1.2334"/>
<path d="M7.47833 426.454H-111.076V545.009H7.47833V426.454Z" stroke="black" stroke-opacity="0.13" stroke-width="1.2334"/>
<path d="M67.6832 411.868H-65.4592V545.01H67.6832V411.868Z" stroke="black" stroke-opacity="0.13" stroke-width="1.38517"/>
<path d="M200.828 411.868H67.6857V545.01H200.828V411.868Z" stroke="black" stroke-opacity="0.13" stroke-width="1.38517"/>
<path d="M333.973 411.868H200.83V545.011H333.973V411.868Z" stroke="black" stroke-opacity="0.13" stroke-width="1.38517"/>
<path d="M467.123 411.868H333.98V545.011H467.123V411.868Z" stroke="black" stroke-opacity="0.13" stroke-width="1.38517"/>
<path d="M600.269 411.868H467.127V545.01H600.269V411.868Z" stroke="black" stroke-opacity="0.13" stroke-width="1.38517"/>
<path d="M733.414 411.868H600.272V545.01H733.414V411.868Z" stroke="black" stroke-opacity="0.13" stroke-width="1.38517"/>
<path d="M866.562 411.868H733.42V545.011H866.562V411.868Z" stroke="black" stroke-opacity="0.13" stroke-width="1.38517"/>
<path d="M999.711 411.868H866.568V545.011H999.711V411.868Z" stroke="black" stroke-opacity="0.13" stroke-width="1.38517"/>
<path d="M1132.85 411.868H999.711V545.01H1132.85V411.868Z" stroke="black" stroke-opacity="0.13" stroke-width="1.38517"/>
<path d="M1266 411.868H1132.86V545.01H1266V411.868Z" stroke="black" stroke-opacity="0.13" stroke-width="1.38517"/>
<path d="M1311.62 426.454H1193.06V545.009H1311.62V426.454Z" stroke="black" stroke-opacity="0.13" stroke-width="1.2334"/>
<path d="M7.47833 544.979H-111.076V663.533H7.47833V544.979Z" stroke="black" stroke-opacity="0.13" stroke-width="1.2334"/>
<path d="M67.6832 544.977H-65.4592V678.119H67.6832V544.977Z" stroke="black" stroke-opacity="0.13" stroke-width="1.38517"/>
<path d="M200.828 544.977H67.6857V678.119H200.828V544.977Z" stroke="black" stroke-opacity="0.13" stroke-width="1.38517"/>
<path d="M333.973 544.977H200.83V678.119H333.973V544.977Z" stroke="black" stroke-opacity="0.13" stroke-width="1.38517"/>
<path d="M467.123 544.977H333.98V678.119H467.123V544.977Z" stroke="black" stroke-opacity="0.13" stroke-width="1.38517"/>
<path d="M600.269 544.977H467.127V678.119H600.269V544.977Z" stroke="black" stroke-opacity="0.13" stroke-width="1.38517"/>
<path d="M733.414 544.977H600.271V678.119H733.414V544.977Z" stroke="black" stroke-opacity="0.13" stroke-width="1.38517"/>
<path d="M866.562 544.977H733.42V678.119H866.562V544.977Z" stroke="black" stroke-opacity="0.13" stroke-width="1.38517"/>
<path d="M999.711 544.977H866.568V678.119H999.711V544.977Z" stroke="black" stroke-opacity="0.13" stroke-width="1.38517"/>
<path d="M1132.85 544.977H999.711V678.119H1132.85V544.977Z" stroke="black" stroke-opacity="0.13" stroke-width="1.38517"/>
<path d="M1266 544.977H1132.86V678.119H1266V544.977Z" stroke="black" stroke-opacity="0.13" stroke-width="1.38517"/>
<path d="M1311.62 544.979H1193.06V663.533H1311.62V544.979Z" stroke="black" stroke-opacity="0.13" stroke-width="1.2334"/>
<path d="M7.47833 663.501H-111.076V782.056H7.47833V663.501Z" stroke="black" stroke-opacity="0.13" stroke-width="1.2334"/>
<path d="M67.6832 678.083H-65.4592V811.226H67.6832V678.083Z" stroke="black" stroke-opacity="0.13" stroke-width="1.38517"/>
<path d="M200.828 678.083H67.6857V811.226H200.828V678.083Z" stroke="black" stroke-opacity="0.13" stroke-width="1.38517"/>
<path d="M333.973 678.083H200.83V811.226H333.973V678.083Z" stroke="black" stroke-opacity="0.13" stroke-width="1.38517"/>
<path d="M467.123 678.083H333.98V811.226H467.123V678.083Z" stroke="black" stroke-opacity="0.13" stroke-width="1.38517"/>
<path d="M600.269 678.083H467.127V811.226H600.269V678.083Z" stroke="black" stroke-opacity="0.13" stroke-width="1.38517"/>
<path d="M733.414 678.083H600.272V811.226H733.414V678.083Z" stroke="black" stroke-opacity="0.13" stroke-width="1.38517"/>
<path d="M866.562 678.083H733.42V811.226H866.562V678.083Z" stroke="black" stroke-opacity="0.13" stroke-width="1.38517"/>
<path d="M999.711 678.083H866.568V811.226H999.711V678.083Z" stroke="black" stroke-opacity="0.13" stroke-width="1.38517"/>
<path d="M1132.85 678.083H999.711V811.226H1132.85V678.083Z" stroke="black" stroke-opacity="0.13" stroke-width="1.38517"/>
<path d="M1266 678.083H1132.86V811.226H1266V678.083Z" stroke="black" stroke-opacity="0.13" stroke-width="1.38517"/>
<path d="M1311.62 663.501H1193.06V782.056H1311.62V663.501Z" stroke="black" stroke-opacity="0.13" stroke-width="1.2334"/>
<path d="M201.028 510.935V545.324H166.639" stroke="url(#paint1_linear_60_235)" stroke-width="1.38517" stroke-linecap="round"/>
<path d="M200.297 510.935V544.593H235.418" stroke="url(#paint2_linear_60_235)" stroke-width="1.38517" stroke-linecap="round"/>
<path d="M200.297 578.25V544.592H235.418" stroke="url(#paint3_linear_60_235)" stroke-width="1.38517" stroke-linecap="round"/>
<path d="M200.297 578.25V544.592H165.176" stroke="url(#paint4_linear_60_235)" stroke-width="1.38517" stroke-linecap="round"/>
<path d="M334.196 244.602V278.99H299.807" stroke="url(#paint5_linear_60_235)" stroke-width="1.38517" stroke-linecap="round"/>
<path d="M333.463 244.602V278.258H368.584" stroke="url(#paint6_linear_60_235)" stroke-width="1.38517" stroke-linecap="round"/>
<path d="M333.463 311.916V278.258H368.584" stroke="url(#paint7_linear_60_235)" stroke-width="1.38517" stroke-linecap="round"/>
<path d="M333.463 311.916V278.258H298.342" stroke="url(#paint8_linear_60_235)" stroke-width="1.38517" stroke-linecap="round"/>
<path d="M1000.03 377.769V412.158H965.641" stroke="url(#paint9_linear_60_235)" stroke-width="1.38517" stroke-linecap="round"/>
<path d="M999.3 377.769V411.425H1034.42" stroke="url(#paint10_linear_60_235)" stroke-width="1.38517" stroke-linecap="round"/>
<path d="M999.301 445.083V411.426H1034.42" stroke="url(#paint11_linear_60_235)" stroke-width="1.38517" stroke-linecap="round"/>
<path d="M999.301 445.083V411.426H964.18" stroke="url(#paint12_linear_60_235)" stroke-width="1.38517" stroke-linecap="round"/>
<path d="M1133.2 644.101V678.49H1098.81" stroke="url(#paint13_linear_60_235)" stroke-width="1.38517" stroke-linecap="round"/>
<path d="M1132.46 644.101V677.759H1167.59" stroke="url(#paint14_linear_60_235)" stroke-width="1.38517" stroke-linecap="round"/>
<path d="M1132.46 711.418V677.76H1167.59" stroke="url(#paint15_linear_60_235)" stroke-width="1.38517" stroke-linecap="round"/>
<path d="M1132.46 711.418V677.76H1097.34" stroke="url(#paint16_linear_60_235)" stroke-width="1.38517" stroke-linecap="round"/>
</g>
</g>
<defs>
<radialGradient id="paint0_radial_60_235" cx="0" cy="0" r="1" gradientUnits="userSpaceOnUse" gradientTransform="translate(600.5 379) rotate(90) scale(1007.77 1596.75)">
<stop stop-color="white" stop-opacity="0.46"/>
<stop offset="0.54" stop-color="white" stop-opacity="0"/>
</radialGradient>
<linearGradient id="paint1_linear_60_235" x1="201.474" y1="510.935" x2="166.195" y2="544.863" gradientUnits="userSpaceOnUse">
<stop offset="0.0394381" stop-color="#EBEBEB"/>
<stop offset="0.55"/>
<stop offset="1" stop-color="#EBEBEB"/>
</linearGradient>
<linearGradient id="paint2_linear_60_235" x1="199.84" y1="510.935" x2="234.396" y2="545.611" gradientUnits="userSpaceOnUse">
<stop offset="0.0394381" stop-color="#EBEBEB"/>
<stop offset="0.55"/>
<stop offset="1" stop-color="#EBEBEB"/>
</linearGradient>
<linearGradient id="paint3_linear_60_235" x1="199.84" y1="578.25" x2="234.395" y2="543.574" gradientUnits="userSpaceOnUse">
<stop offset="0.0394381" stop-color="#EBEBEB"/>
<stop offset="0.55"/>
<stop offset="1" stop-color="#EBEBEB"/>
</linearGradient>
<linearGradient id="paint4_linear_60_235" x1="200.753" y1="578.25" x2="166.198" y2="543.574" gradientUnits="userSpaceOnUse">
<stop offset="0.0394381" stop-color="#EBEBEB"/>
<stop offset="0.55"/>
<stop offset="1" stop-color="#EBEBEB"/>
</linearGradient>
<linearGradient id="paint5_linear_60_235" x1="334.642" y1="244.602" x2="299.363" y2="278.53" gradientUnits="userSpaceOnUse">
<stop offset="0.0394381" stop-color="#EBEBEB"/>
<stop offset="0.55"/>
<stop offset="1" stop-color="#EBEBEB"/>
</linearGradient>
<linearGradient id="paint6_linear_60_235" x1="333.007" y1="244.602" x2="367.562" y2="279.278" gradientUnits="userSpaceOnUse">
<stop offset="0.0394381" stop-color="#EBEBEB"/>
<stop offset="0.55"/>
<stop offset="1" stop-color="#EBEBEB"/>
</linearGradient>
<linearGradient id="paint7_linear_60_235" x1="333.007" y1="311.916" x2="367.562" y2="277.24" gradientUnits="userSpaceOnUse">
<stop offset="0.0394381" stop-color="#EBEBEB"/>
<stop offset="0.55"/>
<stop offset="1" stop-color="#EBEBEB"/>
</linearGradient>
<linearGradient id="paint8_linear_60_235" x1="333.918" y1="311.916" x2="299.364" y2="277.24" gradientUnits="userSpaceOnUse">
<stop offset="0.0394381" stop-color="#EBEBEB"/>
<stop offset="0.55"/>
<stop offset="1" stop-color="#EBEBEB"/>
</linearGradient>
<linearGradient id="paint9_linear_60_235" x1="1000.48" y1="377.769" x2="965.197" y2="411.697" gradientUnits="userSpaceOnUse">
<stop offset="0.0394381" stop-color="#EBEBEB"/>
<stop offset="0.55"/>
<stop offset="1" stop-color="#EBEBEB"/>
</linearGradient>
<linearGradient id="paint10_linear_60_235" x1="998.845" y1="377.769" x2="1033.4" y2="412.445" gradientUnits="userSpaceOnUse">
<stop offset="0.0394381" stop-color="#EBEBEB"/>
<stop offset="0.55"/>
<stop offset="1" stop-color="#EBEBEB"/>
</linearGradient>
<linearGradient id="paint11_linear_60_235" x1="998.845" y1="445.083" x2="1033.4" y2="410.406" gradientUnits="userSpaceOnUse">
<stop offset="0.0394381" stop-color="#EBEBEB"/>
<stop offset="0.55"/>
<stop offset="1" stop-color="#EBEBEB"/>
</linearGradient>
<linearGradient id="paint12_linear_60_235" x1="999.756" y1="445.083" x2="965.202" y2="410.406" gradientUnits="userSpaceOnUse">
<stop offset="0.0394381" stop-color="#EBEBEB"/>
<stop offset="0.55"/>
<stop offset="1" stop-color="#EBEBEB"/>
</linearGradient>
<linearGradient id="paint13_linear_60_235" x1="1133.64" y1="644.101" x2="1098.36" y2="678.029" gradientUnits="userSpaceOnUse">
<stop offset="0.0394381" stop-color="#EBEBEB"/>
<stop offset="0.55"/>
<stop offset="1" stop-color="#EBEBEB"/>
</linearGradient>
<linearGradient id="paint14_linear_60_235" x1="1132.01" y1="644.101" x2="1166.56" y2="678.778" gradientUnits="userSpaceOnUse">
<stop offset="0.0394381" stop-color="#EBEBEB"/>
<stop offset="0.55"/>
<stop offset="1" stop-color="#EBEBEB"/>
</linearGradient>
<linearGradient id="paint15_linear_60_235" x1="1132.01" y1="711.418" x2="1166.56" y2="676.742" gradientUnits="userSpaceOnUse">
<stop offset="0.0394381" stop-color="#EBEBEB"/>
<stop offset="0.55"/>
<stop offset="1" stop-color="#EBEBEB"/>
</linearGradient>
<linearGradient id="paint16_linear_60_235" x1="1132.92" y1="711.418" x2="1098.37" y2="676.742" gradientUnits="userSpaceOnUse">
<stop offset="0.0394381" stop-color="#EBEBEB"/>
<stop offset="0.55"/>
<stop offset="1" stop-color="#EBEBEB"/>
</linearGradient>
</defs>
</svg>
