<svg width="245" height="113" viewBox="0 0 245 113" fill="none" xmlns="http://www.w3.org/2000/svg">
<rect width="245" height="113" fill="white"/>
<path d="M40.1758 66.8449V37.6091H49.4595C49.734 37.6091 50.2417 37.6159 50.9828 37.6294C51.7376 37.6428 52.458 37.6971 53.1442 37.7918C55.4634 38.0761 57.4122 38.8948 58.9903 40.2484C60.5822 41.6018 61.783 43.3208 62.5927 45.4053C63.4024 47.4761 63.8071 49.7501 63.8071 52.2269C63.8071 54.7175 63.4024 57.0049 62.5927 59.0892C61.783 61.1601 60.5822 62.8723 58.9903 64.2257C57.4122 65.5658 55.4634 66.3779 53.1442 66.6622C52.458 66.7569 51.7376 66.811 50.9828 66.8245C50.2417 66.8381 49.734 66.8449 49.4595 66.8449H40.1758ZM44.5808 62.8046H49.4595C49.9261 62.8046 50.4819 62.7911 51.1268 62.7641C51.7719 62.737 52.3415 62.6828 52.8354 62.6016C54.3449 62.3173 55.5664 61.6744 56.4996 60.6728C57.4463 59.6578 58.1395 58.4126 58.5786 56.9372C59.0177 55.4618 59.2373 53.8918 59.2373 52.2269C59.2373 50.5079 59.0109 48.9175 58.5581 47.4559C58.1052 45.9805 57.4052 44.7489 56.4583 43.7608C55.5251 42.7592 54.3176 42.1229 52.8354 41.8524C52.3415 41.7576 51.765 41.7035 51.1062 41.6899C50.4613 41.6627 49.9123 41.6493 49.4595 41.6493H44.5808V62.8046ZM80.9719 67.454C78.0078 67.454 75.4827 66.8178 73.3968 65.5454C71.3108 64.2597 69.7121 62.473 68.6006 60.1856C67.5026 57.8981 66.9536 55.2454 66.9536 52.2269C66.9536 49.2086 67.5026 46.5557 68.6006 44.2683C69.7121 41.981 71.3108 40.2011 73.3968 38.9287C75.4827 37.6428 78.0078 37 80.9719 37C83.9225 37 86.4407 37.6428 88.5267 38.9287C90.6263 40.2011 92.225 41.981 93.3227 44.2683C94.4207 46.5557 94.9697 49.2086 94.9697 52.2269C94.9697 55.2454 94.4207 57.8981 93.3227 60.1856C92.225 62.473 90.6263 64.2597 88.5267 65.5454C86.4407 66.8178 83.9225 67.454 80.9719 67.454ZM80.9719 63.4138C83.0717 63.4407 84.8144 62.9873 86.2005 62.0534C87.6003 61.106 88.6502 59.7931 89.35 58.1147C90.05 56.4229 90.3999 54.4602 90.3999 52.2269C90.3999 49.9936 90.05 48.0447 89.35 46.3798C88.6502 44.7014 87.6003 43.3953 86.2005 42.4613C84.8144 41.5274 83.0717 41.0538 80.9719 41.0402C78.8723 41.0131 77.1226 41.4665 75.7228 42.4004C74.3368 43.3344 73.2939 44.6473 72.5939 46.3393C71.8941 48.0311 71.5372 49.9936 71.5235 52.2269C71.5099 54.4602 71.8528 56.4161 72.5528 58.0943C73.2526 59.7592 74.3025 61.0585 75.7023 61.9925C77.1157 62.9264 78.8723 63.4002 80.9719 63.4138ZM105.662 66.8449V41.6086H95.8017V37.6091H119.824V41.6086H109.964V66.8449H105.662ZM129.397 66.8449L120.792 37.6091H125.3L131.538 59.7187L137.775 37.6294L142.303 37.6091L148.541 59.7187L154.778 37.6091H159.306L150.681 66.8449H146.4L140.039 44.9789L133.678 66.8449H129.397ZM162.76 66.8449V37.6091H181.698V41.6086H167.063V49.811H179.228V53.8105H167.063V62.8452H181.698V66.8449H162.76ZM186.643 66.8449V37.6091H198.294C200.173 37.6091 201.751 37.988 203.028 38.7461C204.304 39.5039 205.265 40.4852 205.91 41.6899C206.555 42.881 206.877 44.1398 206.877 45.4662C206.877 47.0768 206.472 48.4573 205.663 49.6079C204.868 50.7585 203.789 51.5435 202.432 51.963L202.39 50.9681C204.283 51.4283 205.739 52.3285 206.753 53.6684C207.769 54.9948 208.276 56.5447 208.276 58.3177C208.276 60.0367 207.927 61.5323 207.228 62.8046C206.542 64.077 205.533 65.0718 204.202 65.7892C202.884 66.4929 201.286 66.8449 199.404 66.8449H186.643ZM191.007 62.8046H198.746C199.721 62.8046 200.592 62.622 201.361 62.2564C202.143 61.891 202.754 61.37 203.193 60.6932C203.646 60.0028 203.872 59.184 203.872 58.2365C203.872 57.3568 203.672 56.565 203.275 55.8611C202.89 55.1437 202.328 54.5821 201.587 54.1761C200.86 53.7564 200.002 53.5466 199.014 53.5466H191.007V62.8046ZM191.007 49.547H198.232C199.027 49.547 199.742 49.3913 200.373 49.08C201.018 48.7552 201.525 48.295 201.896 47.6995C202.279 47.0904 202.471 46.3594 202.471 45.5067C202.471 44.3698 202.089 43.436 201.32 42.7051C200.55 41.9742 199.521 41.6086 198.232 41.6086H191.007V49.547Z" fill="#0B0B0B"/>
<path d="M26.575 66.8453C29.654 66.8453 32.1501 64.3835 32.1501 61.3466C32.1501 58.3098 29.654 55.8481 26.575 55.8481C23.4961 55.8481 21 58.3098 21 61.3466C21 64.3835 23.4961 66.8453 26.575 66.8453Z" fill="#0B0B0B"/>
<path d="M102.824 84.6097L107.198 72.428H108.424L112.799 84.6097H111.752L107.549 72.9357H108.047L103.87 84.6097H102.824ZM104.633 81.5473V80.6253H110.98V81.5473H104.633ZM118.769 84.8635C117.843 84.8635 117.019 84.6746 116.299 84.2968C115.585 83.9131 115.021 83.3773 114.609 82.6894C114.204 81.9957 114 81.1837 114 80.2531V72.428H114.995V80.0501C114.995 80.7437 115.113 81.3386 115.347 81.835C115.587 82.3256 115.896 82.726 116.273 83.0363C116.657 83.3464 117.066 83.5749 117.5 83.7214C117.941 83.8681 118.363 83.9414 118.769 83.9414C119.176 83.9414 119.599 83.8681 120.038 83.7214C120.479 83.5749 120.888 83.3464 121.265 83.0363C121.642 82.726 121.949 82.3256 122.183 81.835C122.423 81.3386 122.543 80.7437 122.543 80.0501V72.428H123.538V80.2531C123.538 81.178 123.332 81.9874 122.92 82.6809C122.515 83.3689 121.951 83.9048 121.231 84.2883C120.516 84.6718 119.696 84.8635 118.769 84.8635ZM129.341 84.6097V73.3755H124.915V72.428H134.753V73.3755H130.328V84.6097H129.341ZM141.062 84.8635C139.833 84.8635 138.8 84.5956 137.965 84.0598C137.131 83.5184 136.501 82.7712 136.078 81.8181C135.656 80.8649 135.444 79.7652 135.444 78.5189C135.444 77.2725 135.656 76.1729 136.078 75.2197C136.501 74.2665 137.131 73.5222 137.965 72.9864C138.8 72.445 139.833 72.1743 141.062 72.1743C142.291 72.1743 143.32 72.445 144.149 72.9864C144.984 73.5222 145.614 74.2665 146.036 75.2197C146.459 76.1729 146.671 77.2725 146.671 78.5189C146.671 79.7652 146.459 80.8649 146.036 81.8181C145.614 82.7712 144.984 83.5184 144.149 84.0598C143.32 84.5956 142.291 84.8635 141.062 84.8635ZM141.062 83.9075C142.074 83.9131 142.917 83.6877 143.592 83.2309C144.267 82.7684 144.773 82.131 145.11 81.319C145.447 80.5069 145.616 79.5735 145.616 78.5189C145.616 77.4643 145.447 76.5309 145.11 75.7189C144.773 74.9067 144.267 74.2722 143.592 73.8154C142.917 73.3586 142.074 73.1303 141.062 73.1303C140.05 73.1246 139.207 73.3501 138.531 73.8071C137.863 74.2639 137.359 74.9011 137.022 75.7189C136.685 76.5309 136.51 77.4643 136.499 78.5189C136.488 79.5735 136.65 80.5069 136.988 81.319C137.331 82.1254 137.843 82.7599 138.523 83.2224C139.203 83.6792 140.05 83.9075 141.062 83.9075ZM148.392 84.6097V72.428H149.31L154.371 83.2054L159.38 72.428H160.332V84.5928H159.362V74.6698L154.765 84.6097H153.959L149.353 74.6698V84.6097H148.392ZM161.875 84.6097L166.249 72.428H167.475L171.85 84.6097H170.803L166.601 72.9357H167.098L162.921 84.6097H161.875ZM163.684 81.5473V80.6253H170.031V81.5473H163.684ZM175.761 84.6097V73.3755H171.335V72.428H181.173V73.3755H176.747V84.6097H175.761ZM182.722 84.6097V72.428H183.708V84.6097H182.722ZM191.218 84.8635C189.987 84.8635 188.956 84.5956 188.121 84.0598C187.286 83.5184 186.658 82.7712 186.234 81.8181C185.811 80.8649 185.6 79.7652 185.6 78.5189C185.6 77.2725 185.811 76.1729 186.234 75.2197C186.658 74.2665 187.286 73.5222 188.121 72.9864C188.956 72.445 189.987 72.1743 191.218 72.1743C192.446 72.1743 193.475 72.445 194.305 72.9864C195.14 73.5222 195.769 74.2665 196.192 75.2197C196.616 76.1729 196.827 77.2725 196.827 78.5189C196.827 79.7652 196.616 80.8649 196.192 81.8181C195.769 82.7712 195.14 83.5184 194.305 84.0598C193.475 84.5956 192.446 84.8635 191.218 84.8635ZM191.218 83.9075C192.229 83.9131 193.073 83.6877 193.748 83.2309C194.421 82.7684 194.929 82.131 195.266 81.319C195.603 80.5069 195.771 79.5735 195.771 78.5189C195.771 77.4643 195.603 76.5309 195.266 75.7189C194.929 74.9067 194.421 74.2722 193.748 73.8154C193.073 73.3586 192.229 73.1303 191.218 73.1303C190.206 73.1246 189.361 73.3501 188.686 73.8071C188.019 74.2639 187.516 74.9011 187.178 75.7189C186.839 76.5309 186.665 77.4643 186.654 78.5189C186.643 79.5735 186.805 80.5069 187.144 81.319C187.486 82.1254 187.998 82.7599 188.679 83.2224C189.36 83.6792 190.206 83.9075 191.218 83.9075ZM198.548 84.6097V72.428H199.542L206.696 82.8755V72.428H207.69V84.6097H206.696L199.542 74.1453V84.6097H198.548Z" fill="#0B0B0B"/>
</svg>
