<svg width="16" height="16" viewBox="0 0 16 16" fill="none" xmlns="http://www.w3.org/2000/svg">
<path d="M2.10272 12.4374C2.84064 11.7132 3.69813 11.1426 4.67519 10.7259C5.65225 10.3091 6.70789 10.1007 7.8421 10.1007C8.97632 10.1007 10.032 10.3091 11.009 10.7259C11.9861 11.1426 12.8436 11.7132 13.5815 12.4374V1.90154H2.10272V12.4374ZM7.8421 8.46084C8.63469 8.46084 9.31111 8.18071 9.87139 7.62043C10.4317 7.06016 10.7118 6.38373 10.7118 5.59115C10.7118 4.79857 10.4317 4.12214 9.87139 3.56187C9.31111 3.00159 8.63469 2.72146 7.8421 2.72146C7.04952 2.72146 6.37309 3.00159 5.81282 3.56187C5.25255 4.12214 4.97241 4.79857 4.97241 5.59115C4.97241 6.38373 5.25255 7.06016 5.81282 7.62043C6.37309 8.18071 7.04952 8.46084 7.8421 8.46084ZM2.10272 15.0201C1.65176 15.0201 1.26572 14.8596 0.944589 14.5384C0.623457 14.2173 0.462891 13.8313 0.462891 13.3803V1.90154C0.462891 1.45059 0.623457 1.06455 0.944589 0.743417C1.26572 0.422285 1.65176 0.261719 2.10272 0.261719H13.5815C14.0324 0.261719 14.4185 0.422285 14.7396 0.743417C15.0608 1.06455 15.2213 1.45059 15.2213 1.90154V13.3803C15.2213 13.8313 15.0608 14.2173 14.7396 14.5384C14.4185 14.8596 14.0324 15.0201 13.5815 15.0201H2.10272ZM3.51706 13.3803H12.1671C11.5659 12.8474 10.886 12.4408 10.1276 12.1607C9.36919 11.8806 8.60736 11.7405 7.8421 11.7405C7.07685 11.7405 6.30818 11.8806 5.5361 12.1607C4.76401 12.4408 4.091 12.8474 3.51706 13.3803ZM7.8421 6.82102C7.50047 6.82102 7.21009 6.70145 6.97095 6.46231C6.7318 6.22317 6.61223 5.93278 6.61223 5.59115C6.61223 5.24952 6.7318 4.95913 6.97095 4.71999C7.21009 4.48085 7.50047 4.36128 7.8421 4.36128C8.18373 4.36128 8.47412 4.48085 8.71326 4.71999C8.9524 4.95913 9.07197 5.24952 9.07197 5.59115C9.07197 5.93278 8.9524 6.22317 8.71326 6.46231C8.47412 6.70145 8.18373 6.82102 7.8421 6.82102Z" fill="#3F3E5E"/>
</svg>
