<svg width="83" height="78" viewBox="0 0 83 78" fill="none" xmlns="http://www.w3.org/2000/svg">
<g filter="url(#filter0_dd_0_1)">
<rect x="8" y="3" width="67" height="62" rx="31" fill="white"/>
<rect x="8.5" y="3.5" width="66" height="61" rx="30.5" stroke="#E4E7EC"/>
</g>
<mask id="mask0_0_1" style="mask-type:alpha" maskUnits="userSpaceOnUse" x="27" y="20" width="29" height="29">
<rect x="27" y="20" width="29" height="29" fill="#D9D9D9"/>
</mask>
<g mask="url(#mask0_0_1)">
<path d="M41.4867 41.2848C41.8317 41.2848 42.1231 41.1657 42.3609 40.9277C42.5988 40.6895 42.7177 40.3978 42.7177 40.0526C42.7177 39.7076 42.5986 39.4162 42.3603 39.1783C42.1221 38.9407 41.8305 38.8219 41.4855 38.8219C41.1405 38.8219 40.8491 38.941 40.6113 39.1792C40.3734 39.4175 40.2545 39.7091 40.2545 40.0541C40.2545 40.3991 40.3736 40.6905 40.6119 40.9283C40.8501 41.166 41.1417 41.2848 41.4867 41.2848ZM40.6309 36.958H42.3319C42.3474 36.3633 42.4345 35.8882 42.5932 35.5325C42.7521 35.177 43.1375 34.7058 43.7493 34.1187C44.2808 33.5873 44.6878 33.0965 44.9703 32.6464C45.2531 32.1965 45.3945 31.6651 45.3945 31.0523C45.3945 30.0121 45.0208 29.1996 44.2734 28.6148C43.5259 28.0302 42.6417 27.7378 41.6208 27.7378C40.6123 27.7378 39.7777 28.007 39.1172 28.5453C38.4564 29.0836 37.9851 29.7176 37.7031 30.4472L39.2552 31.0698C39.4024 30.6687 39.6542 30.2779 40.0104 29.8974C40.3667 29.5172 40.8957 29.3271 41.5976 29.3271C42.3117 29.3271 42.8395 29.5227 43.1811 29.9137C43.5228 30.305 43.6937 30.7353 43.6937 31.2045C43.6937 31.6152 43.5767 31.9909 43.3427 32.3316C43.1089 32.6724 42.8107 33.0015 42.4482 33.3191C41.655 34.0349 41.1538 34.6058 40.9448 35.0319C40.7355 35.4579 40.6309 36.0999 40.6309 36.958ZM41.5021 45.9788C39.9144 45.9788 38.422 45.6776 37.0249 45.075C35.6279 44.4725 34.4127 43.6547 33.3794 42.6218C32.3461 41.5889 31.5279 40.3742 30.925 38.9778C30.3222 37.5813 30.0208 36.0893 30.0208 34.5018C30.0208 32.914 30.3221 31.4216 30.9247 30.0246C31.5272 28.6276 32.345 27.4124 33.3779 26.3791C34.4108 25.3457 35.6255 24.5276 37.0219 23.9246C38.4183 23.3219 39.9103 23.0205 41.4979 23.0205C43.0856 23.0205 44.578 23.3218 45.9751 23.9243C47.3721 24.5269 48.5873 25.3446 49.6206 26.3776C50.6539 27.4105 51.4721 28.6252 52.075 30.0216C52.6778 31.418 52.9792 32.91 52.9792 34.4976C52.9792 36.0853 52.6779 37.5777 52.0753 38.9747C51.4728 40.3718 50.655 41.587 49.6221 42.6203C48.5892 43.6536 47.3745 44.4717 45.9781 45.0747C44.5816 45.6775 43.0897 45.9788 41.5021 45.9788ZM41.5 44.1663C44.1986 44.1663 46.4844 43.2299 48.3573 41.357C50.2302 39.4841 51.1667 37.1983 51.1667 34.4997C51.1667 31.8011 50.2302 29.5153 48.3573 27.6424C46.4844 25.7695 44.1986 24.833 41.5 24.833C38.8014 24.833 36.5156 25.7695 34.6427 27.6424C32.7698 29.5153 31.8333 31.8011 31.8333 34.4997C31.8333 37.1983 32.7698 39.4841 34.6427 41.357C36.5156 43.2299 38.8014 44.1663 41.5 44.1663Z" fill="#2A2A2A"/>
</g>
<defs>
<filter id="filter0_dd_0_1" x="0" y="0" width="83" height="78" filterUnits="userSpaceOnUse" color-interpolation-filters="sRGB">
<feFlood flood-opacity="0" result="BackgroundImageFix"/>
<feColorMatrix in="SourceAlpha" type="matrix" values="0 0 0 0 0 0 0 0 0 0 0 0 0 0 0 0 0 0 127 0" result="hardAlpha"/>
<feMorphology radius="1" operator="erode" in="SourceAlpha" result="effect1_dropShadow_0_1"/>
<feOffset dy="2"/>
<feGaussianBlur stdDeviation="2"/>
<feColorMatrix type="matrix" values="0 0 0 0 0.0627451 0 0 0 0 0.0980392 0 0 0 0 0.156863 0 0 0 0.02 0"/>
<feBlend mode="normal" in2="BackgroundImageFix" result="effect1_dropShadow_0_1"/>
<feColorMatrix in="SourceAlpha" type="matrix" values="0 0 0 0 0 0 0 0 0 0 0 0 0 0 0 0 0 0 127 0" result="hardAlpha"/>
<feMorphology radius="5" operator="erode" in="SourceAlpha" result="effect2_dropShadow_0_1"/>
<feOffset dy="5"/>
<feGaussianBlur stdDeviation="6.5"/>
<feComposite in2="hardAlpha" operator="out"/>
<feColorMatrix type="matrix" values="0 0 0 0 0.0627451 0 0 0 0 0.0980392 0 0 0 0 0.156863 0 0 0 0.05 0"/>
<feBlend mode="normal" in2="effect1_dropShadow_0_1" result="effect2_dropShadow_0_1"/>
<feBlend mode="normal" in="SourceGraphic" in2="effect2_dropShadow_0_1" result="shape"/>
</filter>
</defs>
</svg>
