<svg width="135" height="162" viewBox="0 0 135 162" fill="none" xmlns="http://www.w3.org/2000/svg">
<g filter="url(#filter0_d_0_1)">
<rect x="35" y="74" width="67" height="62" rx="31" fill="white" shape-rendering="crispEdges"/>
<rect x="35.5" y="74.5" width="66" height="61" rx="30.5" stroke="#E4E7EC" shape-rendering="crispEdges"/>
<mask id="mask0_0_1" style="mask-type:alpha" maskUnits="userSpaceOnUse" x="54" y="90" width="29" height="30">
<rect x="54" y="90.5" width="29" height="29" fill="#D9D9D9"/>
</mask>
<g mask="url(#mask0_0_1)">
<path d="M73.3334 112.25V109.833H76.475L70.1917 103.61L65.3584 108.444L56.4167 99.4417L58.1084 97.75L65.3584 105L70.1917 100.167L78.1667 108.142V105H80.5834V112.25H73.3334Z" fill="#2A2A2A"/>
</g>
</g>
<g filter="url(#filter1_d_0_1)">
<path d="M95 46C95 41.5817 91.4183 38 87 38H48C43.5817 38 40 41.5817 40 46V59C40 63.4183 43.5817 67 48 67H95V46Z" fill="white"/>
<circle cx="80" cy="53" r="4" fill="#E4E3E7"/>
<circle cx="68" cy="53" r="4" fill="#E4E3E7"/>
<circle cx="56" cy="53" r="4" fill="#E4E3E7"/>
</g>
<defs>
<filter id="filter0_d_0_1" x="19" y="68" width="99" height="94" filterUnits="userSpaceOnUse" color-interpolation-filters="sRGB">
<feFlood flood-opacity="0" result="BackgroundImageFix"/>
<feColorMatrix in="SourceAlpha" type="matrix" values="0 0 0 0 0 0 0 0 0 0 0 0 0 0 0 0 0 0 127 0" result="hardAlpha"/>
<feMorphology radius="2" operator="erode" in="SourceAlpha" result="effect1_dropShadow_0_1"/>
<feOffset dy="10"/>
<feGaussianBlur stdDeviation="9"/>
<feComposite in2="hardAlpha" operator="out"/>
<feColorMatrix type="matrix" values="0 0 0 0 0.0627451 0 0 0 0 0.0980392 0 0 0 0 0.156863 0 0 0 0.07 0"/>
<feBlend mode="normal" in2="BackgroundImageFix" result="effect1_dropShadow_0_1"/>
<feBlend mode="normal" in="SourceGraphic" in2="effect1_dropShadow_0_1" result="shape"/>
</filter>
<filter id="filter1_d_0_1" x="0" y="0" width="135" height="109" filterUnits="userSpaceOnUse" color-interpolation-filters="sRGB">
<feFlood flood-opacity="0" result="BackgroundImageFix"/>
<feColorMatrix in="SourceAlpha" type="matrix" values="0 0 0 0 0 0 0 0 0 0 0 0 0 0 0 0 0 0 127 0" result="hardAlpha"/>
<feOffset dy="2"/>
<feGaussianBlur stdDeviation="20"/>
<feComposite in2="hardAlpha" operator="out"/>
<feColorMatrix type="matrix" values="0 0 0 0 0 0 0 0 0 0 0 0 0 0 0 0 0 0 0.1 0"/>
<feBlend mode="normal" in2="BackgroundImageFix" result="effect1_dropShadow_0_1"/>
<feBlend mode="normal" in="SourceGraphic" in2="effect1_dropShadow_0_1" result="shape"/>
</filter>
</defs>
</svg>
